<svg version="1.1" id="Layer_1" xmlns="http://www.w3.org/2000/svg" xmlns:xlink="http://www.w3.org/1999/xlink" x="0px" y="0px"
     width="1000px" height="1000px" viewBox="0 0 1000 1000" enable-background="new 0 0 1000 1000" xml:space="preserve">
<path fill="#234088" opacity="1.000000" stroke="none" 
	d="M 509.6 178.4 C 546.7 199.2 573.8 228.8 591.1 267.3 C 601.8 290.9 607.1 315.8 607.3 341.8 C 607.3 345.3 608.4 347.6 611.2 349.8 C 636.2 369.7 650.5 395.9 655.1 427.3 C 657.4 442.5 656.2 457.9 654.2 473 C 649.5 508.2 637.9 541 618.4 570.7 C 582.6 625.3 532.7 660.1 469.2 674.9 C 445.2 680.5 420.8 681.9 396.3 679.4 C 319.2 671.5 259.3 634.9 216.5 570.6 C 197.6 542 186.3 510.3 181.5 476.3 C 178.8 457 177.5 437.7 181.5 418.3 C 187.3 390.7 201.2 368 223 350.2 C 226.3 347.6 227.7 344.9 227.8 340.6 C 229.1 260.4 280.4 192.9 350.6 166.7 C 376.3 157.1 402.8 153.1 430 154.9 C 458.1 156.7 484.6 164.3 509.6 178.4 M 535 603.5 C 565.6 580.6 588.4 551.7 602.8 516.2 C 611.6 494.6 616.2 472.1 617.1 448.8 C 617.9 430.2 613.7 413.2 603.2 397.8 C 594.9 385.8 584.1 376.5 570.7 370.5 C 567.6 369 567 367.4 567.4 364 C 568.7 352.6 569 341.2 567.9 329.6 C 565.8 307.3 558.7 286.7 547.4 267.6 C 514.6 212.1 449 182.2 383.7 197.1 C 308.7 214.2 257 288.3 267.8 364.4 C 268.3 367.6 267.3 368.9 264.6 370 C 254.4 374.3 246 381.1 238.5 389.1 C 219.2 409.8 215.8 435.1 218.6 461.8 C 220.9 484.9 227.4 507.1 237.5 528.1 C 254.7 563.7 280.1 592 313.8 612.5 C 340.5 628.7 369.4 638.3 400.7 640.9 C 419.4 642.4 437.9 641.5 456.3 638 C 484.8 632.4 510.7 620.6 535 603.5 z"/>
<path fill="#234088" opacity="1.000000" stroke="none" 
	d="M 482.3 592.4 C 456.9 603.3 430.7 607.4 403.8 605.1 C 364.5 601.7 330.4 586 302.1 558.1 C 275 531.4 259.7 498.7 255 461.2 C 253.2 447.4 252.2 433.2 259.9 420.4 C 267.8 407.3 279.3 400.2 294.7 399.6 C 299.6 399.4 304.6 399.1 309.6 398.9 C 314.6 398.7 315.3 397.8 313.3 393.2 C 309.2 383.8 306.3 374.2 304.4 364.1 C 295.5 317.6 318.7 268 359.9 244.8 C 380.7 233.1 403 228 426.6 229.8 C 477.9 233.6 520.6 271.5 530.3 321.6 C 535 345.6 532.3 368.8 522.8 391.3 C 520 397.9 520.5 398.8 527.8 398.7 C 537.8 398.5 547.7 398.8 556.9 403.6 C 575.5 413.2 582.3 429.3 581.2 449.1 C 580 472.9 574.4 495.8 563.2 516.9 C 545 551.3 518.1 576.4 482.3 592.4 M 426.8 268.8 C 421.3 267.8 415.7 267.9 410.3 268.5 C 364.8 273.7 336.5 314.6 342.2 355 C 346.5 386 372.9 414.2 403.7 419.4 C 413.1 421 413.1 421 413.3 430.6 C 413.4 438.1 413.4 438 405.8 438 C 370.8 438.1 335.8 438.1 300.8 438.1 C 294.2 438.2 292.7 439.9 293 446.6 C 293.6 458.3 295.4 469.8 299.1 480.9 C 317.9 537.7 374.9 573.6 433 565.7 C 466.1 561.2 493.2 546.1 514.2 520.4 C 531.3 499.4 540.7 475.2 542.1 448 C 542.5 439.8 541.3 438 533.3 438 C 502 438 470.7 438 439.3 438 C 434.8 438 430.3 438 425.8 438 C 423.2 438 422.1 436.7 421.8 434 C 420.6 421.7 420.7 421.5 432.5 419.2 C 432.7 419.2 432.9 419.1 433 419.1 C 472.6 410.6 498.7 371.7 492.9 333.5 C 487.9 300.5 460 272.5 426.8 268.8 z"/>
<path fill="#234088" opacity="1.000000" stroke="none" 
	d="M 410.4 395.8 C 414.8 399.7 413.2 404.4 413 408.8 C 412.9 411.3 410.5 410.8 408.6 410.6 C 388.9 408.4 373.2 399.1 362.2 382.8 C 337.7 346.6 352 294.7 397.7 280.1 C 433.1 268.7 472.5 289.9 482.3 325.9 C 492.9 365.3 468.1 404.2 428.1 411.1 C 422.9 412 421.9 411.2 421.8 405.9 C 421.8 397.1 421.9 388.2 421.7 379.4 C 421.7 376.5 422.7 374.4 425.1 372.7 C 435.3 365.5 445.4 358.1 455.6 350.8 C 456.1 350.4 456.7 350.1 457.2 349.7 C 459.6 347.8 462.5 345.6 459.9 342.3 C 457.5 339.1 454.7 340.9 452.1 342.8 C 444.1 348.5 436.1 354.2 428.1 359.9 C 426.8 360.9 425.6 362.2 423.6 362.1 C 422 360.6 422.7 358.7 422.7 357 C 422.4 343.8 422.3 330.7 422.1 317.5 C 422.1 316.5 422.1 315.5 421.9 314.5 C 421.6 312.1 420.5 310.3 417.9 310.3 C 415.2 310.3 414.2 312.1 414 314.6 C 413.8 318.7 413.4 322.9 413.5 327 C 413.5 344.9 413.7 362.7 413.9 380.5 C 413.9 382.1 414.2 383.8 412.7 385.2 C 410.4 385.3 409.2 383.5 407.8 382.2 C 401.1 376.3 394.4 370.2 387.6 364.3 C 386 362.8 384.4 361.4 382.6 360.2 C 380.6 358.8 378.4 358.9 376.7 360.7 C 374.7 362.7 375.5 364.7 377.2 366.4 C 380.1 369.2 383.1 371.9 386.1 374.5 C 394.1 381.5 402.1 388.5 410.4 395.8 z"/>
<path fill="#234088" opacity="1.000000" stroke="none" 
	d="M 475.8 526.1 C 475 521.5 474.1 517.4 469.8 515.3 C 462.6 511.7 455.6 516 454.5 524.6 C 454.3 525.6 454.4 526.6 454.4 527.6 C 454.4 531.3 452.4 533.1 448.9 533.3 C 445.2 533.6 443.2 531.5 442.8 528.1 C 442.1 521 445 508.8 454 504.7 C 457.5 503.1 457.2 500.9 455.3 498.4 C 453.1 495.5 450.2 494.1 446.5 494.5 C 442.7 495 440.3 497.4 438.9 500.9 C 434.9 510.5 434.9 510.4 426.2 515.1 C 422.3 517.2 420.8 520.8 420.6 525 C 420.6 526.4 420.7 527.8 420.4 529 C 419.3 532.4 416.7 533.6 413.4 533.3 C 410.1 533.1 408.9 530.8 408.7 527.9 C 407.9 518.2 412.4 506.6 422.9 503.5 C 425.3 502.9 426.4 501.4 427 499 C 428.3 493.7 430.9 489.1 435.5 485.9 C 438.7 483.6 437.7 481.5 435.3 479.5 C 428.2 473.4 419.7 472.4 410.9 473.9 C 406 474.7 401.1 476.1 397.4 479.9 C 395 482.5 394.5 484.7 397.7 487 C 402.7 490.7 405.6 495.9 407.2 501.8 C 408.2 505.6 407.3 508.6 403.4 509.8 C 399.5 511.1 397 509.1 395.8 505.5 C 394.9 502.7 393.8 500.2 391.7 498.1 C 387.9 494.4 382.5 494.4 378.7 498 C 375.9 500.6 375.5 502.8 379.3 505 C 387.4 509.9 390.1 517.7 390.3 526.7 C 390.4 530.2 389.1 532.9 385.1 533.3 C 380.8 533.6 379.1 530.9 378.8 527.2 C 378.5 524.4 378.2 521.6 376.7 519.1 C 374.3 515 370.5 513.1 365.8 513.9 C 360.8 514.7 358.3 517.8 358.1 522.8 C 358 524.6 358 526.5 357.6 528.3 C 356.8 531.4 354.6 533.2 351.5 533.2 C 348.2 533.1 346.4 530.8 345.9 527.7 C 344 518 350 507.3 359.4 503.5 C 361.7 502.6 363.1 501.3 364 498.8 C 366.2 492.1 370.9 487.5 377.4 484.9 C 379.4 484.2 381 483.3 381.9 481.3 C 386.2 471 394.3 465.4 404.9 463.3 C 409.4 462.4 411.2 460.4 410.7 455.9 C 410.6 455.1 410.7 454.3 410.7 453.4 C 410.6 447.2 414.1 444.9 420.2 447 C 421.5 447.4 422.2 448.2 422.3 449.5 C 422.4 451 422.5 452.5 422.4 454 C 422 459 423.1 462.2 429.1 463.4 C 438.4 465.4 445.9 470.6 450 479.7 C 450.8 481.5 452.1 482.5 454 483.1 C 461.7 485.6 466.7 490.8 468.6 498.7 C 469.2 501.3 470.5 502.8 472.9 503.8 C 482.3 507.7 487 514.9 487.5 525.1 C 487.7 529.3 487.4 533.1 482.3 533.6 C 477.4 534.1 476.3 530.4 475.8 526.1 z"/>
</svg>